<?xml version="1.0" encoding="UTF-8"?>
<svg id="Layer_1" data-name="Layer 1" xmlns="http://www.w3.org/2000/svg" viewBox="0 0 1150.61 333.69">
  <defs>
    <style>
      .cls-1 {
        fill: #fff;
        stroke-width: 0px;
      }
    </style>
  </defs>
  <path class="cls-1" d="M897.91,277.57c1.1-2.18,1.74-4.63,1.74-7.23,0-9.03-7.47-16.35-16.69-16.35s-16.69,7.32-16.69,16.35c-1.84,0-3.46.93-4.41,2.33-1.92-1.45-4.31-2.33-6.92-2.33-6.26,0-11.34,4.97-11.34,11.11s5.07,11.11,11.34,11.11h42.04c4.24,0,7.68-3.37,7.68-7.52,0-3.85-2.95-7.01-6.75-7.46Z"/>
  <path class="cls-1" d="M436.35,293.16s0-.06,0-.1c0-3.65-2.96-6.61-6.61-6.61-1.49,0-2.86.5-3.96,1.33-2.48-8.41-10.26-14.55-19.48-14.55-11.22,0-20.32,9.1-20.32,20.32,0,2.15.34,4.21.95,6.16-2.83.3-5.04,2.7-5.04,5.62,0,.53.08,1.03.21,1.51-6.86.62-12.23,6.38-12.23,13.4,0,7.44,6.03,13.46,13.46,13.46h51.1c11.22,0,20.32-9.1,20.32-20.32,0-10.58-8.08-19.26-18.41-20.22Z"/>
  <path class="cls-1" d="M1072.7,208.31c.12-.44.19-.91.19-1.39,0-2.67-2.02-4.86-4.62-5.14.57-1.78.87-3.67.87-5.64,0-10.28-8.33-18.61-18.61-18.61-8.44,0-15.57,5.63-17.84,13.33-1.01-.76-2.27-1.22-3.63-1.22-3.34,0-6.05,2.71-6.05,6.05,0,.03,0,.06,0,.09-.42.04-.83.11-1.24.18-3.6-2.64-7.95-4.3-12.65-4.54-11.25-.58-20.89,6.72-23.88,16.87-1.28-.97-2.87-1.55-4.6-1.55-4.24,0-7.67,3.44-7.67,7.67,0,.04,0,.07,0,.11-.1,0-.21.02-.31.03-11.52,1.23-10.51,18.36,1.07,18.36h97.84c6.81,0,12.33-5.52,12.33-12.33,0-6.43-4.92-11.71-11.2-12.28Z"/>
  <path class="cls-1" d="M137.34,47.03c-.13-.01-.26-.03-.39-.04,0-.05,0-.09,0-.14,0-5.34-4.33-9.67-9.67-9.67-2.18,0-4.18.73-5.8,1.95-3.71-12.56-15.49-21.64-29.34-21.26-13.85-.38-25.63,8.7-29.34,21.26-1.62-1.22-3.62-1.95-5.8-1.95-5.34,0-9.67,4.33-9.67,9.67,0,.05,0,.09,0,.14-.13.01-.26.03-.39.04-14.51,1.54-13.24,23.13,1.35,23.13h87.69c14.59,0,15.86-21.58,1.35-23.13Z"/>
  <path class="cls-1" d="M790.78,57.08c-.23-.82-.36-1.68-.36-2.57,0-4.95,3.75-9.02,8.56-9.54-1.05-3.3-1.62-6.81-1.62-10.46,0-19.06,15.45-34.51,34.51-34.51,15.66,0,28.88,10.43,33.1,24.72,1.88-1.41,4.2-2.26,6.73-2.26,6.2,0,11.22,5.03,11.22,11.22,0,.06,0,.11,0,.16.78.07,1.54.2,2.31.33,6.67-4.9,14.75-7.97,23.47-8.42,12.87-.67,24.59,4.23,33,12.5,4.99-2.01,10.51-3.02,16.29-2.72,7.61.39,14.66,3.07,20.48,7.35.67-.11,1.33-.22,2.01-.28,0-.05,0-.1,0-.14,0-5.41,4.39-9.8,9.8-9.8,2.21,0,4.24.74,5.88,1.97,3.83-12.96,16.13-22.28,30.49-21.54,15.11.78,27.47,12.97,28.46,28.07.26,3.91-.24,7.66-1.35,11.15,4.2.45,7.47,4.01,7.47,8.33,0,.78-.11,1.53-.31,2.24,3.94.36,7.54,1.87,10.48,4.18,2.85-3.8,7.37-6.26,12.48-6.26,1.62,0,3.18.25,4.65.7,4.4-4.47,10.51-7.24,17.27-7.24,12.52,0,22.83,9.5,24.1,21.69,1.19-.34,2.44-.53,3.74-.53h3.33c7.54,0,13.65,6.11,13.65,13.65s-6.11,13.65-13.65,13.65h-344.08c-12.63,0-22.87-10.24-22.87-22.87,0-11.93,9.13-21.71,20.78-22.77Z"/>
  <path class="cls-1" d="M553.05,171.24c34.37,0,37.08-50.88,2.87-54.22-.34-.03-.69-.07-1.03-.1.04-.83.06-1.66.06-2.5,0-31.47-25.51-56.98-56.98-56.98-24.12,0-44.72,14.99-53.04,36.16-6.54-7.78-16.33-12.73-27.29-12.73s-20.94,5.04-27.48,12.94c.12-1.71.21-3.44.21-5.18,0-40.67-34.29-73.33-75.54-70.64-35.2,2.29-63.72,30.91-65.91,66.11-1.33,21.39,6.84,40.89,20.7,54.69-2.34-.29-4.72-.47-7.14-.47-.95,0-1.9.02-2.84.07-21.11,1.04-19.92,32.84,1.21,32.84h292.2Z"/>
  <path class="cls-1" d="M721.38,236.49c-.09,0-.18-.02-.27-.03,0-.03,0-.07,0-.1,0-3.73-3.02-6.75-6.75-6.75-1.52,0-2.92.51-4.05,1.36-2.64-8.93-11.11-15.35-21.01-14.84-1.84.1-3.61.45-5.3,1,.03-.54.04-1.08.04-1.63,0-17.29-14.01-31.3-31.3-31.3-15.34,0-28.1,11.04-30.78,25.61-.9-2.58-3.35-4.43-6.23-4.43-1.49,0-2.86.5-3.96,1.33-2.48-8.41-10.26-14.55-19.48-14.55-11.22,0-20.31,9.1-20.31,20.32,0,2.15.34,4.21.95,6.16-2.83.3-5.04,2.7-5.04,5.62,0,.53.08,1.03.21,1.51-6.86.62-12.23,6.38-12.23,13.4,0,7.44,6.03,13.46,13.46,13.46h151.11c10.19,0,11.07-15.07.94-16.15Z"/>
  <path class="cls-1" d="M836.75,168.67c1.12-2.26,1.76-4.8,1.76-7.5,0-9.36-7.59-16.95-16.95-16.95-7.17,0-13.29,4.46-15.76,10.75-3.31-2.82-7.6-4.53-12.29-4.53-2.71,0-5.28.58-7.62,1.6-1.48-10.39-10.39-18.38-21.19-18.38-11.84,0-21.43,9.59-21.43,21.43-2.37,0-4.45,1.21-5.67,3.05-2.46-1.9-5.54-3.05-8.89-3.05-8.04,0-14.56,6.52-14.56,14.56s6.52,14.56,14.56,14.56h107.09c4.31,0,7.8-3.49,7.8-7.8,0-3.99-2.99-7.27-6.85-7.74Z"/>
  <path class="cls-1" d="M260.5,267.32c3.56-5.21,5.48-11.87,4.9-19.05-1.1-13.45-10.73-23.85-22.87-24.73-5.31-.38-10.29,1.11-14.45,3.93-2.16-16.15-14.67-28.54-29.82-28.54-8.28,0-15.77,3.7-21.22,9.69-1.51-4.19-5.19-7.16-9.5-7.16-2.31,0-4.43.86-6.14,2.29-4-15.03-16.85-25.84-31.86-24.98-15.79.91-28.7,15.04-29.74,32.55-.27,4.53.25,8.89,1.41,12.93-4.39.52-7.81,4.65-7.81,9.66,0,.9.12,1.77.33,2.6-4.11.41-7.88,2.17-10.95,4.84-2.98-4.4-7.7-7.26-13.04-7.26-1.69,0-3.32.29-4.86.82-4.59-5.18-10.98-8.4-18.05-8.4-13.09,0-23.85,11.02-25.18,25.15-1.24-.39-2.55-.62-3.91-.62h-3.48c-7.88,0-14.26,7.09-14.26,15.83s6.39,15.83,14.26,15.83h145.39s0,0,0,0h100.84c3.79,0,6.87-3.41,6.87-7.62v-.14c0-4.21-3.08-7.62-6.87-7.62Z"/>
  <path class="cls-1" d="M1126.57,270.56c.33-.76.52-1.59.52-2.48,0-3.32-2.62-6.02-5.86-6.02-.71,0-1.4.14-2.03.38-2.74-5.04-7.97-8.46-13.99-8.46-8.85,0-16.02,7.37-16.02,16.47,0,1.28.16,2.52.43,3.72-3.47,2.13-5.78,6.05-5.71,10.53.1,6.64,5.6,11.86,12.06,11.86h24.18c7.43,0,13.46-6.19,13.46-13.84h0c0-5.25-2.84-9.82-7.03-12.16Z"/>
</svg>