<?xml version="1.0" encoding="UTF-8"?>
<svg id="Layer_1" data-name="Layer 1" xmlns="http://www.w3.org/2000/svg" viewBox="0 0 127.68 106.38">
  <defs>
    <style>
      .cls-1 {
        fill: #EEF7FF;
        stroke-width: 0px;
      }
    </style>
  </defs>
  <path class="cls-1" d="M109.6,41.43c.86-1.89,1.34-3.98,1.34-6.19,0-8.31-6.73-15.04-15.04-15.04-1.84,0-3.59.35-5.21.95C83.66,8.53,70.2,0,54.74,0,32.01,0,13.58,18.43,13.58,41.16c0,3.2.4,6.3,1.09,9.29C5.76,55.79-.17,65.57,0,76.76c.26,16.59,14.39,29.63,30.98,29.63h62.12c19.09,0,34.57-15.48,34.57-34.57h0c0-13.12-7.31-24.53-18.07-30.39Z"/>
</svg>